<?xml version="1.0" encoding="utf-8"?>
<!-- Generator: Adobe Illustrator 17.1.0, SVG Export Plug-In . SVG Version: 6.00 Build 0)  -->
<!DOCTYPE svg PUBLIC "-//W3C//DTD SVG 1.1//EN" "http://www.w3.org/Graphics/SVG/1.1/DTD/svg11.dtd">
<svg version="1.1" id="Layer_1" xmlns="http://www.w3.org/2000/svg" xmlns:xlink="http://www.w3.org/1999/xlink" x="0px" y="0px"
	 viewBox="0 5.5 204 46.6" enable-background="new 0 5.5 204 46.6" xml:space="preserve">
<g>
	<path fill="#FFFFFF" d="M67.4,21.1l3.9,10.3h-7.8L67.4,21.1z M73.4,37.4c0.1,0.2,0.4,0.4,0.7,0.4c0.1,0,0.2,0,0.2,0
		c0.3-0.2,0.5-0.5,0.3-0.9L68,19c-0.1-0.2-0.3-0.4-0.7-0.4c-0.2,0-0.5,0.2-0.7,0.4L60,36.9c-0.2,0.3,0.1,0.7,0.4,0.9
		c0.1,0,0.2,0,0.2,0c0.2,0,0.5-0.2,0.7-0.4l1.7-4.6h8.9L73.4,37.4z"/>
	<path fill="#FFFFFF" d="M94.4,37.1c0,0.3,0.2,0.7,0.7,0.7c0.3,0,0.7-0.3,0.7-0.7V19.2c0-0.1-0.1-0.2-0.1-0.3
		c-0.1-0.1-0.1-0.2-0.2-0.2c-0.3-0.2-0.7-0.2-1,0.2l-6.8,9.5l-6.8-9.5c-0.2-0.3-0.7-0.3-1-0.2c0,0-0.1,0-0.1,0.1
		c-0.2,0.1-0.2,0.3-0.2,0.5v17.8c0,0.3,0.3,0.7,0.7,0.7c0.3,0,0.7-0.3,0.7-0.7V21.3l6.2,8.5c0.2,0.2,0.3,0.3,0.5,0.3h0.1
		c0.2,0,0.4-0.1,0.5-0.3l6.2-8.6v15.9C94.6,37.1,94.4,37.1,94.4,37.1z"/>
	<path fill="#FFFFFF" d="M107,37.1c0,0.3,0.3,0.7,0.7,0.7c0.4,0,0.7-0.3,0.7-0.7v-8.7l6.4-8.8c0.2-0.3,0.2-0.7-0.2-1
		c-0.3-0.2-0.7-0.2-1,0.1l-6.1,8.3l-6-8.3c-0.2-0.3-0.7-0.3-1-0.1c-0.2,0.2-0.3,0.7-0.2,1l6.5,8.8v8.7H107z"/>
	<g>
		<path fill="#FFFFFF" d="M130.7,21.1l3.9,10.3h-7.8L130.7,21.1z M136.8,37.4c0.1,0.2,0.4,0.4,0.7,0.4c0.1,0,0.2,0,0.2,0
			c0.3-0.2,0.5-0.5,0.3-0.9L131.4,19c-0.1-0.2-0.3-0.4-0.7-0.4c-0.2,0-0.5,0.2-0.7,0.4l-6.7,17.9c-0.2,0.3,0.1,0.7,0.4,0.9
			c0.1,0,0.2,0,0.2,0c0.2,0,0.5-0.2,0.7-0.4l1.7-4.6h8.8L136.8,37.4z"/>
		<path fill="#FFFFFF" d="M153.4,37.8c0.4,0,0.7-0.3,0.7-0.7c0-0.4-0.3-0.7-0.7-0.7h-9.2V19.1c0-0.3-0.3-0.7-0.7-0.7
			c-0.3,0-0.7,0.3-0.7,0.7v18c0,0.3,0.3,0.7,0.7,0.7h0.1C143.6,37.8,153.4,37.8,153.4,37.8z"/>
		<path fill="#FFFFFF" d="M168.8,37.8c0.4,0,0.7-0.3,0.7-0.7c0-0.4-0.3-0.7-0.7-0.7h-9.2V19.1c0-0.3-0.3-0.7-0.7-0.7
			c-0.3,0-0.7,0.3-0.7,0.7v18c0,0.3,0.3,0.7,0.7,0.7h0.1C158.9,37.8,168.8,37.8,168.8,37.8z"/>
		<path fill="#FFFFFF" d="M173.4,37.1c0,0.3,0.2,0.7,0.7,0.7h0.1h0.1h9.9c0.4,0,0.7-0.3,0.7-0.7c0-0.4-0.2-0.7-0.7-0.7h-9.3v-7.6
			h8.1c0.3,0,0.7-0.3,0.7-0.7c0-0.4-0.3-0.7-0.7-0.7h-8.1v-7.6h9.2c0.4,0,0.7-0.3,0.7-0.7c0-0.3-0.2-0.7-0.7-0.7h-9.9h-0.2
			c-0.3,0-0.7,0.3-0.7,0.7L173.4,37.1L173.4,37.1z"/>
		<path fill="#FFFFFF" d="M202.5,37.5C202.5,37.6,202.6,37.6,202.5,37.5c0.2,0.2,0.4,0.3,0.6,0.3c0.4,0,0.7-0.3,0.7-0.7V19.3
			c0-0.3-0.3-0.7-0.7-0.7c-0.3,0-0.7,0.3-0.7,0.7v15.8l-11.7-16.2c-0.2-0.3-0.7-0.3-1-0.2c-0.2,0.2-0.3,0.5-0.2,0.7v17.7
			c0,0.3,0.3,0.7,0.7,0.7c0.3,0,0.7-0.3,0.7-0.7V21.3L202.5,37.5z"/>
	</g>
	<path fill="#FFFFFF" d="M21.9,35.7C21.9,35.8,21.9,35.8,21.9,35.7c2.6,2.3,3,4.2,3.5,5.9l1.4,0.2c-0.3-1.2-1-2.6-2.1-4.1
		c-0.7-0.9-1.4-1.7-2.2-2.3c0,0-0.1-0.1-0.2-0.2C21.9,35.1,21.6,35.4,21.9,35.7z M10.9,30.3l-0.2,1.4c1.2-0.3,2.6-1,4.1-2
		c0.5-0.5,1.1-1,1.7-1.5c0.2-0.2,0.5-0.5,0.7-0.7c0,0,0.1-0.1,0.2-0.2c0.2-0.3-0.1-0.7-0.4-0.4c-0.1,0.1-0.1,0.1-0.1,0.1l0,0
		c-0.1,0.1-0.2,0.2-0.2,0.2c-0.3,0.3-0.7,0.7-1.1,1C13.8,29.5,12.3,29.9,10.9,30.3z M25.5,21.8L25.5,21.8L25.5,21.8L25.5,21.8
		c-0.2-0.2-0.3-0.2-0.4-0.4c-2.1-2.1-2.6-3.9-3-5.4H22l0,0l0,0l-1.2-0.2c0.3,1.2,1,2.6,2,4l0,0c0.7,0.9,1.4,1.7,2.2,2.3
		c0,0,0.1,0.1,0.2,0.2C25.4,22.4,25.8,22.1,25.5,21.8z M36.4,27.3l0.2-1.4c-1.2,0.3-2.6,1-4.1,2c-0.7,0.5-1.2,1.1-1.8,1.6
		c-0.1,0.1-0.2,0.2-0.3,0.3c0,0,0,0,0,0.1c-0.1,0.1-0.2,0.2-0.2,0.2c0,0-0.1,0.1-0.2,0.2c-0.2,0.3,0.1,0.7,0.4,0.4
		c0.1-0.1,0.1-0.1,0.1-0.1c0.7-0.7,1.4-1.4,2-1.8C34,28,35.3,27.7,36.4,27.3z M44,32c0.3-2.3-1.4-4.9-4.4-5.8l-0.2,1.4
		c1.8,0.5,3,2.3,2.7,4.1c-0.2,0.8-0.7,3.8-5.5,2.9c-2.6-0.5-6-1.8-8.3-2.8c0,0-2.8-1.6-3.9-2.7c1.1-1,1.8-1.6,3.9-2.6
		c4.7-2.2,8.8-4.4,9.1-6.8c0.2-1.6-0.7-4.2-6-4.6l-0.2,1.2c7.2,0.8,4.6,6.3-4.2,9.4c1.3-2.3,2.6-6.2,3.3-9.4c1.1-5-1.6-7.5-3.8-7.9
		l0,0c-2.3-0.3-4.9,1.3-5.8,4.3l1.4,0.2c0.5-1.8,2.3-2.9,4-2.7c0.8,0.2,3.8,0.8,3,5.5c-0.5,2.6-2.2,7.1-2.7,8.3
		c-0.5,1.2-1.8,3-2.7,4c-1.6-2-2.4-3.9-2.4-3.9c-3-6.8-4-8.6-6.8-9.3c-1.2-0.2-4.2,0.7-4.5,6l1.2,0.2c0.7-7.2,6.3-4.6,9.4,4.2
		c-2.3-1.3-6.2-2.6-9.4-3.4c-5-1.2-7.4,1.6-7.8,3.7l0,0c-0.3,2.3,1.4,4.9,4.4,5.8L8,30c-1.8-0.5-3-2.3-2.7-4.1
		c0.2-0.8,0.7-3.8,5.5-2.9c2.6,0.5,6,1.8,8.3,2.8c0,0,1.8,0.7,3.9,2.9C21,30.2,19.2,31,19.2,31c-6.9,3-9.1,5-9.3,6.8
		c-0.2,1.9,0.8,4.2,6,4.6l0.2-1.2c-7.2-0.8-4.6-6.3,4.2-9.4C19,34.1,17.7,38,17,41.2c-1.1,5,1.6,7.5,3.8,7.9l0,0
		c2.3,0.3,4.9-1.3,5.8-4.3l-1.4-0.2c-0.5,1.8-2.3,2.9-4,2.7c-0.8-0.2-3.8-0.8-3-5.5c0.5-2.6,1.7-6,2.7-8.3c0,0,0.7-1.7,2.8-3.8
		c1.8,2.1,2.5,3.9,2.5,3.9c3,6.7,4.5,8.7,6.8,9.1c1.2,0.2,4.2-0.7,4.5-6l-1.2-0.2c-0.7,7.2-6.3,4.6-9.4-4.2c2.3,1.3,6.2,2.6,9.4,3.4
		C41.1,37,43.6,34.2,44,32L44,32z M44.3,21.4c3.1,8.8,0.4,18.9-7.4,24.8c-1.1,0.8-2.2,1.4-3.3,2.1c0.2-0.7,0.3-1.7-0.2-2.6
		c-1.2-2.3-3.7-2.4-5.1-2.6c-0.8-0.2-7.4-0.9-9.5-1.2L18.8,43c1.9,0.3,7.5,0.9,8.7,1.1c4.9,0.9,5.4,3.2,4.7,4.6
		c-0.1,0.2-0.1,0.2-0.3,0.4c-8.9,3.6-19.5,1-25.6-7.1c-0.9-1.1-1.6-2.3-2.3-3.6c0.8,0.4,1.8,0.7,3,0c2.3-1.2,2.3-3.7,2.6-5.1
		c0.2-0.8,0.9-7.3,1.1-9.4l-1.2-0.2c-0.2,1.9-0.8,7.4-1,8.7c-0.8,4.9-3.1,5.4-4.6,4.7c-0.7-0.3-0.9-1-0.9-1
		c-3.1-8.8-0.4-18.9,7.4-24.8c1.1-0.8,2.2-1.4,3.3-2.1c-0.2,0.7-0.3,1.7,0.2,2.6c1.2,2.3,3.7,2.4,5.1,2.6c0.8,0.2,7.4,0.9,9.5,1.2
		l0.2-1.2c-1.9-0.3-7.5-0.9-8.7-1.1c-4.9-0.9-5.4-3.2-4.7-4.6c0.1-0.2,0.2-0.3,0.3-0.4c8.9-3.6,19.5-1,25.6,7.1
		c0.9,1.1,1.6,2.3,2.3,3.6c-0.8-0.4-1.8-0.7-3,0c-2.3,1.2-2.3,3.7-2.6,5.1c-0.2,0.8-0.9,7.4-1.1,9.5l1.2,0.2c0.2-1.9,0.8-7.5,1-8.8
		c0.8-4.9,3.1-5.4,4.6-4.7C44,20.8,44.3,21.4,44.3,21.4z M47,28.8C47,16,36.6,5.5,23.7,5.5S0.4,15.9,0.4,28.8s10.4,23.3,23.3,23.3
		S47,41.7,47,28.8z"/>
</g>
</svg>
