<?xml version="1.0" encoding="utf-8"?>
<!-- Generator: Adobe Illustrator 17.1.0, SVG Export Plug-In . SVG Version: 6.00 Build 0)  -->
<!DOCTYPE svg PUBLIC "-//W3C//DTD SVG 1.1//EN" "http://www.w3.org/Graphics/SVG/1.1/DTD/svg11.dtd">
<svg version="1.1" id="Layer_1" xmlns="http://www.w3.org/2000/svg" xmlns:xlink="http://www.w3.org/1999/xlink" x="0px" y="0px"
	 viewBox="0 0 40 40" enable-background="new 0 0 40 40" xml:space="preserve">
<circle cx="20" cy="19.9" r="18.9"/>
<g>
	<path fill="#FFFFFF" d="M17.6,32.9L17.6,32.9c-5.1-1.3-6-3.3-6-6.5v-2.3c0-2.1-0.5-3.5-3.5-3.5c-0.8,0-0.9-0.7-0.9-0.8
		c0-0.4,0.4-0.8,0.9-0.8c2.9,0,3.5-1.3,3.5-3.5v-2.3c0-3.2,0.9-5.2,6.1-6.1l0,0c0.5,0,0.9,0.3,0.9,0.8c0,0.4-0.3,0.7-0.5,0.8
		c-4.3,0.8-4.7,1.9-4.7,4.5v2.3c0,2.3-0.8,3.6-2.5,4.3c1.6,0.7,2.5,1.7,2.5,4.3v2.3c0,2.7,0.4,3.7,4.5,4.9l0,0
		c0.3,0,0.5,0.4,0.5,0.8C18.5,32.4,18.4,32.9,17.6,32.9L17.6,32.9z"/>
	<path fill="#FFFFFF" d="M22.1,32.9c-0.4,0-0.9-0.3-0.9-0.8c0-0.4,0.3-0.7,0.5-0.8c4.1-1.1,4.5-2.1,4.5-4.9v-2.3
		c0-2.3,0.8-3.6,2.5-4.3c-1.6-0.7-2.5-1.7-2.5-4.3v-2.3c0-2.7-0.4-3.3-4.5-4.5l0,0c-0.3,0-0.5-0.4-0.5-0.8c0-0.3,0.1-0.8,0.9-0.8
		c5.2,1.6,6.1,3.3,6.1,6.4v2.3c0,2.1,0.5,3.5,3.5,3.5c0.5,0,0.9,0.3,0.9,0.8c0,0.4-0.4,0.8-0.9,0.8c-2.9,0-3.5,1.3-3.5,3.5v2.4
		C28.3,30,27.3,32,22.1,32.9L22.1,32.9L22.1,32.9z"/>
</g>
</svg>
